<?xml version="1.0" encoding="iso-8859-1"?>
<!-- Generator: Adobe Illustrator 19.1.0, SVG Export Plug-In . SVG Version: 6.00 Build 0)  -->
<svg version="1.1" id="Capa_1" xmlns="http://www.w3.org/2000/svg" xmlns:xlink="http://www.w3.org/1999/xlink" x="0px" y="0px"
	 viewBox="0 0 472.577 472.577" style="enable-background:new 0 0 472.577 472.577;" xml:space="preserve">
<g>
	<g>
		<path d="M470.606,239.655l-72.01-90.013l-14.06,11.252l60.31,75.395H175.525v18.003h269.32l-60.309,75.394l14.06,11.252
			l72.01-90.031C473.234,247.612,473.234,242.949,470.606,239.655z"/>
		<path d="M288.042,452.32H18.003V20.257h270.038v126.019h18.003V11.256c0-4.968-4.032-9.001-9.001-9.001H9.001
			C4.033,2.255,0,6.287,0,11.256v450.065c0,4.968,4.032,9.001,9.001,9.001h288.042c4.969,0,9.001-4.032,9.002-9.001V344.304h-18.003
			V452.32L288.042,452.32z"/>
	</g>
</g>
<g>
</g>
<g>
</g>
<g>
</g>
<g>
</g>
<g>
</g>
<g>
</g>
<g>
</g>
<g>
</g>
<g>
</g>
<g>
</g>
<g>
</g>
<g>
</g>
<g>
</g>
<g>
</g>
<g>
</g>
</svg>
